<svg width="26" height="32" viewBox="0 0 26 32" fill="none" xmlns="http://www.w3.org/2000/svg">
<path d="M1.63106 28.8H3.25592V30.4C3.25592 30.8243 3.42711 31.2313 3.73184 31.5314C4.03656 31.8314 4.44985 32 4.88079 32H24.3792C24.8101 32 25.2234 31.8314 25.5281 31.5314C25.8328 31.2313 26.004 30.8243 26.004 30.4V4.8C26.004 4.37565 25.8328 3.96869 25.5281 3.66863C25.2234 3.36857 24.8101 3.2 24.3792 3.2H22.7543V1.6C22.7543 1.17565 22.5831 0.768687 22.2784 0.468629C21.9737 0.168571 21.5604 0 21.1294 0L5.96403 0C5.95266 0 5.94237 0.00586667 5.93099 0.0064C5.88302 0.00950453 5.83567 0.0188295 5.79017 0.0341333C5.77284 0.04 5.75659 0.0442667 5.7398 0.0517333C5.68087 0.0776916 5.62712 0.113815 5.5811 0.1584L0.16489 5.49173C0.119613 5.53705 0.0829273 5.58997 0.0565657 5.648C0.048983 5.66453 0.04465 5.68053 0.0386922 5.6976C0.0231419 5.74222 0.0136712 5.78867 0.0105278 5.83573C0.0105278 5.84747 0.00402832 5.8576 0.00402832 5.8688V27.2C0.00402813 27.4103 0.0461282 27.6185 0.127921 27.8128C0.209713 28.007 0.329594 28.1835 0.480706 28.3321C0.631818 28.4807 0.811198 28.5985 1.00859 28.6788C1.20597 28.7591 1.4175 28.8003 1.63106 28.8ZM24.3792 4.26667C24.5228 4.26667 24.6606 4.32286 24.7621 4.42288C24.8637 4.5229 24.9208 4.65855 24.9208 4.8V30.4C24.9208 30.5415 24.8637 30.6771 24.7621 30.7771C24.6606 30.8771 24.5228 30.9333 24.3792 30.9333H4.88079C4.73714 30.9333 4.59938 30.8771 4.4978 30.7771C4.39623 30.6771 4.33917 30.5415 4.33917 30.4V28.8H21.1294C21.5604 28.8 21.9737 28.6314 22.2784 28.3314C22.5831 28.0313 22.7543 27.6243 22.7543 27.2V4.26667H24.3792ZM21.6711 1.6V27.2C21.6711 27.3414 21.614 27.4771 21.5124 27.5771C21.4108 27.6771 21.2731 27.7333 21.1294 27.7333H1.63106C1.48741 27.7333 1.34965 27.6771 1.24808 27.5771C1.1465 27.4771 1.08944 27.3414 1.08944 27.2V6.4H4.88079C5.31173 6.4 5.72502 6.23143 6.02974 5.93137C6.33446 5.63131 6.50565 5.22435 6.50565 4.8V1.06667H21.1294C21.2731 1.06667 21.4108 1.12286 21.5124 1.22288C21.614 1.3229 21.6711 1.45855 21.6711 1.6ZM5.42241 1.8208V4.8C5.42241 4.94145 5.36535 5.0771 5.26377 5.17712C5.1622 5.27714 5.02444 5.33333 4.88079 5.33333H1.85529L5.42241 1.8208Z" fill="black"/>
<path d="M4.33922 8.53334C4.05193 8.53334 3.7764 8.64572 3.57326 8.84576C3.37011 9.0458 3.25598 9.31711 3.25598 9.60001V17.0667C3.25598 17.3496 3.37011 17.6209 3.57326 17.8209C3.7764 18.021 4.05193 18.1333 4.33922 18.1333H18.4214C18.7087 18.1333 18.9842 18.021 19.1874 17.8209C19.3905 17.6209 19.5046 17.3496 19.5046 17.0667V9.60001C19.5046 9.31711 19.3905 9.0458 19.1874 8.84576C18.9842 8.64572 18.7087 8.53334 18.4214 8.53334H4.33922ZM14.311 17.0667L12.151 14.9621L13.276 13.8667L16.5604 17.0667H14.311ZM10.9952 15.3365L12.7712 17.0667H6.19915L9.48679 13.8667L10.9952 15.3365ZM18.1024 17.0667L14.0402 13.1088C13.8365 12.9116 13.5622 12.801 13.2765 12.801C12.9908 12.801 12.7165 12.9116 12.5128 13.1088L11.3803 14.2112L10.2483 13.1088C10.0446 12.9116 9.77033 12.801 9.48463 12.801C9.19892 12.801 8.92466 12.9116 8.72094 13.1088L4.65824 17.0667H4.33922V9.60001H18.4214V17.0667H18.1024Z" fill="black"/>
<path d="M18.963 19.7333H3.7976C3.65396 19.7333 3.51619 19.7895 3.41462 19.8895C3.31305 19.9896 3.25598 20.1252 3.25598 20.2667C3.25598 20.4081 3.31305 20.5438 3.41462 20.6438C3.51619 20.7438 3.65396 20.8 3.7976 20.8H18.963C19.1067 20.8 19.2444 20.7438 19.346 20.6438C19.4476 20.5438 19.5046 20.4081 19.5046 20.2667C19.5046 20.1252 19.4476 19.9896 19.346 19.8895C19.2444 19.7895 19.1067 19.7333 18.963 19.7333Z" fill="black"/>
<path d="M10.297 22.4H9.75537C9.61172 22.4 9.47396 22.4562 9.37238 22.5562C9.27081 22.6562 9.21375 22.7919 9.21375 22.9333C9.21375 23.0748 9.27081 23.2104 9.37238 23.3105C9.47396 23.4105 9.61172 23.4667 9.75537 23.4667H10.297C10.4406 23.4667 10.5784 23.4105 10.68 23.3105C10.7815 23.2104 10.8386 23.0748 10.8386 22.9333C10.8386 22.7919 10.7815 22.6562 10.68 22.5562C10.5784 22.4562 10.4406 22.4 10.297 22.4Z" fill="black"/>
<path d="M7.04733 22.4H3.7976C3.65396 22.4 3.51619 22.4562 3.41462 22.5562C3.31305 22.6562 3.25598 22.7919 3.25598 22.9333C3.25598 23.0748 3.31305 23.2104 3.41462 23.3105C3.51619 23.4105 3.65396 23.4667 3.7976 23.4667H7.04733C7.19098 23.4667 7.32874 23.4105 7.43032 23.3105C7.53189 23.2104 7.58895 23.0748 7.58895 22.9333C7.58895 22.7919 7.53189 22.6562 7.43032 22.5562C7.32874 22.4562 7.19098 22.4 7.04733 22.4Z" fill="black"/>
</svg>
