<svg width="26" height="32" viewBox="0 0 26 32" fill="none" xmlns="http://www.w3.org/2000/svg">
<path d="M1.62703 28.8H3.2519V30.4C3.2519 30.8243 3.42309 31.2313 3.72781 31.5314C4.03253 31.8314 4.44582 32 4.87676 32H24.3751C24.8061 32 25.2194 31.8314 25.5241 31.5314C25.8288 31.2313 26 30.8243 26 30.4V4.8C26 4.37565 25.8288 3.96869 25.5241 3.66863C25.2194 3.36857 24.8061 3.2 24.3751 3.2H22.7503V1.6C22.7503 1.17565 22.5791 0.768687 22.2744 0.468629C21.9696 0.168571 21.5563 0 21.1254 0L5.96 0C5.94863 0 5.93834 0.00586667 5.92696 0.0064C5.87881 0.00945169 5.83127 0.0187774 5.7856 0.0341333C5.76881 0.04 5.75256 0.0442667 5.73631 0.0517333C5.67701 0.0773235 5.62303 0.113487 5.57708 0.1584L0.160862 5.49173C0.115584 5.53705 0.078899 5.58997 0.0525374 5.648C0.0449547 5.66453 0.0406217 5.68107 0.0346638 5.69813C0.0190374 5.74234 0.00974048 5.78847 0.00704109 5.8352C0.00704109 5.84693 0 5.85707 0 5.8688V27.2C-1.89833e-07 27.4103 0.0420999 27.6185 0.123892 27.8128C0.205685 28.007 0.325565 28.1835 0.476678 28.3321C0.62779 28.4807 0.807169 28.5985 1.00456 28.6788C1.20194 28.7591 1.41347 28.8003 1.62703 28.8ZM24.3751 4.26667C24.5188 4.26667 24.6565 4.32286 24.7581 4.42288C24.8597 4.5229 24.9168 4.65855 24.9168 4.8V30.4C24.9168 30.5415 24.8597 30.6771 24.7581 30.7771C24.6565 30.8771 24.5188 30.9333 24.3751 30.9333H4.87676C4.73311 30.9333 4.59535 30.8771 4.49378 30.7771C4.3922 30.6771 4.33514 30.5415 4.33514 30.4V28.8H21.1254C21.5563 28.8 21.9696 28.6314 22.2744 28.3314C22.5791 28.0313 22.7503 27.6243 22.7503 27.2V4.26667H24.3751ZM21.667 1.6V27.2C21.667 27.3414 21.61 27.4771 21.5084 27.5771C21.4068 27.6771 21.2691 27.7333 21.1254 27.7333H1.62703C1.48338 27.7333 1.34562 27.6771 1.24405 27.5771C1.14247 27.4771 1.08541 27.3414 1.08541 27.2V6.4H4.87676C5.3077 6.4 5.72099 6.23143 6.02571 5.93137C6.33043 5.63131 6.50163 5.22435 6.50163 4.8V1.06667H21.1254C21.2691 1.06667 21.4068 1.12286 21.5084 1.22288C21.61 1.3229 21.667 1.45855 21.667 1.6ZM5.41838 1.8208V4.8C5.41838 4.94145 5.36132 5.0771 5.25974 5.17712C5.15817 5.27714 5.02041 5.33333 4.87676 5.33333H1.85126L5.41838 1.8208Z" fill="black"/>
<path d="M3.79357 9.06667C3.64993 9.06667 3.51216 9.12286 3.41059 9.22287C3.30902 9.32289 3.25195 9.45855 3.25195 9.6C3.25195 9.74145 3.30902 9.8771 3.41059 9.97712C3.51216 10.0771 3.64993 10.1333 3.79357 10.1333H18.959C19.1026 10.1333 19.2404 10.0771 19.342 9.97712C19.4435 9.8771 19.5006 9.74145 19.5006 9.6C19.5006 9.45855 19.4435 9.32289 19.342 9.22287C19.2404 9.12286 19.1026 9.06667 18.959 9.06667H3.79357Z" fill="black"/>
<path d="M18.959 19.7333H3.79357C3.64993 19.7333 3.51216 19.7895 3.41059 19.8895C3.30902 19.9896 3.25195 20.1252 3.25195 20.2667C3.25195 20.4081 3.30902 20.5438 3.41059 20.6438C3.51216 20.7438 3.64993 20.8 3.79357 20.8H18.959C19.1026 20.8 19.2404 20.7438 19.342 20.6438C19.4435 20.5438 19.5006 20.4081 19.5006 20.2667C19.5006 20.1252 19.4435 19.9896 19.342 19.8895C19.2404 19.7895 19.1026 19.7333 18.959 19.7333Z" fill="black"/>
<path d="M18.9588 11.7333H16.2507C16.1071 11.7333 15.9693 11.7895 15.8677 11.8895C15.7662 11.9896 15.7091 12.1252 15.7091 12.2667C15.7091 12.4081 15.7662 12.5438 15.8677 12.6438C15.9693 12.7438 16.1071 12.8 16.2507 12.8H18.9588C19.1025 12.8 19.2402 12.7438 19.3418 12.6438C19.4434 12.5438 19.5005 12.4081 19.5005 12.2667C19.5005 12.1252 19.4434 11.9896 19.3418 11.8895C19.2402 11.7895 19.1025 11.7333 18.9588 11.7333Z" fill="black"/>
<path d="M14.0844 12.2667C14.0844 12.1252 14.0273 11.9896 13.9257 11.8895C13.8242 11.7895 13.6864 11.7333 13.5428 11.7333H3.79357C3.64993 11.7333 3.51216 11.7895 3.41059 11.8895C3.30902 11.9896 3.25195 12.1252 3.25195 12.2667C3.25195 12.4081 3.30902 12.5438 3.41059 12.6438C3.51216 12.7438 3.64993 12.8 3.79357 12.8H13.5428C13.6864 12.8 13.8242 12.7438 13.9257 12.6438C14.0273 12.5438 14.0844 12.4081 14.0844 12.2667Z" fill="black"/>
<path d="M10.293 22.4H9.75134C9.60769 22.4 9.46993 22.4562 9.36835 22.5562C9.26678 22.6562 9.20972 22.7919 9.20972 22.9333C9.20972 23.0748 9.26678 23.2104 9.36835 23.3105C9.46993 23.4105 9.60769 23.4667 9.75134 23.4667H10.293C10.4366 23.4667 10.5744 23.4105 10.6759 23.3105C10.7775 23.2104 10.8346 23.0748 10.8346 22.9333C10.8346 22.7919 10.7775 22.6562 10.6759 22.5562C10.5744 22.4562 10.4366 22.4 10.293 22.4Z" fill="black"/>
<path d="M7.0433 22.4H3.79357C3.64993 22.4 3.51216 22.4562 3.41059 22.5562C3.30902 22.6562 3.25195 22.7919 3.25195 22.9333C3.25195 23.0748 3.30902 23.2104 3.41059 23.3105C3.51216 23.4105 3.64993 23.4667 3.79357 23.4667H7.0433C7.18695 23.4667 7.32471 23.4105 7.42629 23.3105C7.52786 23.2104 7.58493 23.0748 7.58493 22.9333C7.58493 22.7919 7.52786 22.6562 7.42629 22.5562C7.32471 22.4562 7.18695 22.4 7.0433 22.4Z" fill="black"/>
<path d="M3.79357 15.4667H6.50168C6.64533 15.4667 6.78309 15.4105 6.88467 15.3105C6.98624 15.2104 7.0433 15.0748 7.0433 14.9333C7.0433 14.7919 6.98624 14.6562 6.88467 14.5562C6.78309 14.4562 6.64533 14.4 6.50168 14.4H3.79357C3.64993 14.4 3.51216 14.4562 3.41059 14.5562C3.30902 14.6562 3.25195 14.7919 3.25195 14.9333C3.25195 15.0748 3.30902 15.2104 3.41059 15.3105C3.51216 15.4105 3.64993 15.4667 3.79357 15.4667Z" fill="black"/>
<path d="M18.959 14.4H9.20983C9.06619 14.4 8.92842 14.4562 8.82685 14.5562C8.72528 14.6562 8.66821 14.7919 8.66821 14.9333C8.66821 15.0748 8.72528 15.2104 8.82685 15.3105C8.92842 15.4105 9.06619 15.4667 9.20983 15.4667H18.959C19.1027 15.4667 19.2404 15.4105 19.342 15.3105C19.4436 15.2104 19.5006 15.0748 19.5006 14.9333C19.5006 14.7919 19.4436 14.6562 19.342 14.5562C19.2404 14.4562 19.1027 14.4 18.959 14.4Z" fill="black"/>
<path d="M3.79357 18.1333H5.41844C5.56209 18.1333 5.69985 18.0771 5.80142 17.9771C5.903 17.8771 5.96006 17.7414 5.96006 17.6C5.96006 17.4586 5.903 17.3229 5.80142 17.2229C5.69985 17.1229 5.56209 17.0667 5.41844 17.0667H3.79357C3.64993 17.0667 3.51216 17.1229 3.41059 17.2229C3.30902 17.3229 3.25195 17.4586 3.25195 17.6C3.25195 17.7414 3.30902 17.8771 3.41059 17.9771C3.51216 18.0771 3.64993 18.1333 3.79357 18.1333Z" fill="black"/>
<path d="M8.12646 18.1333H14.6259C14.7696 18.1333 14.9073 18.0771 15.0089 17.9771C15.1105 17.8771 15.1675 17.7414 15.1675 17.6C15.1675 17.4586 15.1105 17.3229 15.0089 17.2229C14.9073 17.1229 14.7696 17.0667 14.6259 17.0667H8.12646C7.98281 17.0667 7.84505 17.1229 7.74348 17.2229C7.6419 17.3229 7.58484 17.4586 7.58484 17.6C7.58484 17.7414 7.6419 17.8771 7.74348 17.9771C7.84505 18.0771 7.98281 18.1333 8.12646 18.1333Z" fill="black"/>
<path d="M18.959 17.0667H17.3341C17.1905 17.0667 17.0527 17.1229 16.9511 17.2229C16.8495 17.3229 16.7925 17.4586 16.7925 17.6C16.7925 17.7414 16.8495 17.8771 16.9511 17.9771C17.0527 18.0771 17.1905 18.1333 17.3341 18.1333H18.959C19.1026 18.1333 19.2404 18.0771 19.342 17.9771C19.4435 17.8771 19.5006 17.7414 19.5006 17.6C19.5006 17.4586 19.4435 17.3229 19.342 17.2229C19.2404 17.1229 19.1026 17.0667 18.959 17.0667Z" fill="black"/>
</svg>
