<svg width="183" height="288" viewBox="0 0 183 288" fill="none" xmlns="http://www.w3.org/2000/svg">
<path fill-rule="evenodd" clip-rule="evenodd" d="M58.1409 103.673C64.4634 104.877 70.7229 107.084 76.6498 109.577C80.1751 111.056 81.7113 105.307 78.2319 103.845C70.2758 100.498 61.2592 97.1557 52.5407 97.001C43.335 96.8405 34.5534 102.469 27.7437 108.19C24.8146 110.655 29.0334 114.839 31.9453 112.392C39.483 106.063 48.1958 101.782 58.1409 103.673" fill="black"/>
<path fill-rule="evenodd" clip-rule="evenodd" d="M130.369 99.498C121.697 98.9649 112.376 101.527 104.191 104.164C100.562 105.333 102.116 111.071 105.767 109.896C112.33 107.787 119.278 105.981 126.162 105.511C135.591 104.863 143.553 110.377 149.985 116.809C152.696 119.514 156.903 115.313 154.192 112.601C147.881 106.296 139.552 100.06 130.369 99.498" fill="black"/>
<path fill-rule="evenodd" clip-rule="evenodd" d="M55.2496 145.82C46.9782 145.82 39.9965 141.509 39.9965 136.402C39.9965 131.3 46.9782 126.99 55.2496 126.99C63.521 126.99 70.5027 131.3 70.5027 136.402C70.5027 141.509 63.521 145.82 55.2496 145.82M76.447 136.402C76.447 127.792 67.1381 121.046 55.2497 121.046C43.3614 121.046 34.0525 127.792 34.0525 136.402C34.0525 145.017 43.3614 151.764 55.2497 151.764C67.1381 151.764 76.447 145.017 76.447 136.402" fill="black"/>
<path fill-rule="evenodd" clip-rule="evenodd" d="M124.537 145.82C116.266 145.82 109.284 141.509 109.284 136.402C109.284 131.3 116.266 126.99 124.537 126.99C132.808 126.99 139.79 131.3 139.79 136.402C139.79 141.509 132.808 145.82 124.537 145.82M124.537 121.046C112.649 121.046 103.34 127.792 103.34 136.402C103.34 145.017 112.649 151.764 124.537 151.764C136.425 151.764 145.734 145.017 145.734 136.402C145.734 127.792 136.425 121.046 124.537 121.046" fill="black"/>
<path fill-rule="evenodd" clip-rule="evenodd" d="M56.4048 131.818C53.2579 131.818 50.7071 134.369 50.7071 137.516C50.7071 140.669 53.2579 143.219 56.4048 143.219C59.5517 143.219 62.1025 140.669 62.1025 137.516C62.1025 134.369 59.5517 131.818 56.4048 131.818" fill="black"/>
<path fill-rule="evenodd" clip-rule="evenodd" d="M124.176 131.746C120.989 131.746 118.403 134.331 118.403 137.518C118.403 140.705 120.989 143.29 124.176 143.29C127.363 143.29 129.948 140.705 129.948 137.518C129.948 134.331 127.363 131.746 124.176 131.746" fill="black"/>
<path fill-rule="evenodd" clip-rule="evenodd" d="M93.9564 186.685C97.2639 188.616 100.262 183.48 96.9543 181.554C95.1774 180.511 93.3947 179.474 91.6178 178.43C90.8554 177.989 90.093 177.542 89.3249 177.095C89.6173 173.22 89.2676 169.139 89.2676 165.287V137.52C89.2676 133.697 83.3234 133.691 83.3234 137.52V169.385C83.3234 172.102 82.3031 176.951 83.4266 179.554C84.8998 182.959 90.9299 184.913 93.9564 186.685" fill="black"/>
<path fill-rule="evenodd" clip-rule="evenodd" d="M106.309 201.155H75.2127C71.3894 201.155 71.3837 207.099 75.2127 207.099H106.309C110.133 207.099 110.138 201.155 106.309 201.155" fill="black"/>
<path fill-rule="evenodd" clip-rule="evenodd" d="M96.7641 213.845H85.4776C81.6543 213.845 81.6428 219.789 85.4776 219.789H96.7641C100.587 219.789 100.593 213.845 96.7641 213.845" fill="black"/>
<path fill-rule="evenodd" clip-rule="evenodd" d="M137.143 263.905C137.063 270.193 136.409 282.603 127.828 281.193C123.506 280.482 118.686 277.484 114.639 275.845C109.967 273.948 105.295 272.05 100.63 270.159C101.134 268.382 101.157 266.525 101.128 264.673C101.409 265.521 102.04 266.232 103.077 266.45C110.11 267.929 117.149 269.402 124.183 270.881C127.914 271.666 129.513 265.934 125.765 265.149C124.618 264.908 123.472 264.667 122.325 264.427L120.675 262.191C123.019 260.557 121.443 256.092 118.118 256.929C113.103 258.19 108.093 259.457 103.077 260.718C102.057 260.976 101.398 261.744 101.117 262.638C101.111 260.919 101.065 259.251 100.635 257.651C105.301 255.754 109.973 253.862 114.639 251.965C118.645 250.343 123.18 247.62 127.421 246.783C136.174 245.046 137.229 257.216 137.143 263.905M82.2924 270.629C78.0106 272.366 73.7287 274.102 69.4411 275.845C65.4401 277.467 60.906 280.19 56.6586 281.027C47.9057 282.764 46.8567 270.594 46.9427 263.905C47.0229 257.617 47.6706 245.207 56.2573 246.617C60.5736 247.328 65.3943 250.326 69.4411 251.965C73.8204 253.742 78.194 255.519 82.5733 257.296C81.9141 259.377 81.6848 261.721 81.6848 264.002C81.6848 266.238 81.5989 268.508 82.2924 270.629M134.621 240.638C130.333 238.535 126.149 240.925 122.188 242.53C113.859 245.912 105.525 249.294 97.1902 252.676C95.3731 251.329 93.1261 250.578 90.8562 250.704C88.8213 250.813 87.245 251.415 85.9897 252.309C77.959 249.047 69.9284 245.792 61.892 242.53C57.9311 240.925 53.7582 238.529 49.4648 240.638C42.036 244.284 40.9985 256.854 40.9985 263.905C40.9985 271.07 41.9845 283.497 49.4648 287.171C53.7524 289.275 57.9368 286.885 61.892 285.28C69.9456 282.013 77.9991 278.745 86.047 275.478C87.6233 276.527 89.4805 277.152 91.4008 277.152C93.5618 276.974 95.5508 276.303 97.173 275.128C105.513 278.51 113.853 281.898 122.188 285.28C126.149 286.885 130.327 289.281 134.621 287.171C142.044 283.526 143.087 270.955 143.087 263.905C143.087 256.74 142.101 244.313 134.621 240.638" fill="black"/>
<path fill-rule="evenodd" clip-rule="evenodd" d="M78.1554 260.717C73.1398 259.456 68.13 258.189 63.1144 256.928C59.7955 256.091 58.2077 260.556 60.5579 262.19L58.907 264.425C57.7606 264.666 56.6142 264.907 55.4678 265.148C51.7247 265.933 53.3068 271.665 57.0498 270.88C64.0831 269.401 71.1221 267.928 78.1554 266.449C81.0558 265.841 80.9182 261.41 78.1554 260.717" fill="black"/>
<path fill-rule="evenodd" clip-rule="evenodd" d="M170.502 160.128C168.244 165.04 164.702 171.609 159.829 175.45C160.013 174.636 160.196 173.822 160.385 173.008C163.63 162.301 166.605 151.398 167.923 140.782C167.929 140.777 167.934 140.771 167.94 140.759C169.041 137.71 170.004 134.592 170.858 131.439C173.689 128.504 175.965 131.846 176.298 136.437C176.859 144.244 173.701 153.175 170.502 160.128M156.797 160.655C147.408 197.198 138.815 240.274 91.1188 240.016C68.9642 239.896 47.6008 227.698 38.5842 206.913C32.3076 192.457 29.3498 175.857 25.4405 160.655C24.7584 157.99 23.9846 155.204 23.2451 152.436C22.3567 148.561 21.4739 144.692 20.5855 140.822C20.3791 139.51 20.2071 138.243 20.1441 137.085C19.5365 126.641 20.1441 116.008 20.0753 105.547C19.9779 91.0393 17.1462 71.3725 27.0054 59.3237C38.2919 45.5151 55.3907 44.426 71.3488 47.8137C77.4133 49.1034 84.7733 53.1158 90.9353 53.133C97.6648 53.1502 105.856 48.7423 112.522 47.4296C130.481 43.8929 148.824 47.9283 158.815 64.6545C163.458 76.4684 162.271 90.3744 162.191 102.824C162.111 114.369 162.844 126.171 162.099 137.693C162.053 138.392 161.967 139.143 161.858 139.928C160.878 144.204 159.904 148.475 158.924 152.745C158.19 155.456 157.439 158.162 156.797 160.655M11.7407 160.128C8.58808 153.273 5.23481 144.176 5.94559 136.437C6.3583 131.926 8.41039 128.114 11.3624 131.347C12.2222 134.534 13.1909 137.681 14.303 140.759C14.3718 140.949 14.4979 141.069 14.5896 141.229C14.6068 141.304 14.624 141.384 14.6412 141.459C14.7099 141.929 14.7501 142.404 14.8246 142.869C16.4296 152.734 18.946 162.719 21.7661 172.607C21.984 173.558 22.2018 174.504 22.4139 175.456C17.5416 171.632 14.0278 165.104 11.7407 160.128M19.4389 41.279C20.9809 45.5781 22.5228 49.8772 24.0647 54.1705C25.3602 57.7874 19.6166 59.3294 18.3326 55.7525C16.7907 51.4535 15.2488 47.1602 13.7126 42.8611C12.4114 39.2441 18.1607 37.7079 19.4389 41.279M28.7077 28.3475C30.3758 34.0337 32.0495 39.7199 33.7176 45.4119C34.8009 49.0919 29.0631 50.651 27.9855 46.9882C26.3174 41.302 24.6494 35.6158 22.9756 29.9295C21.8923 26.2438 27.6301 24.6847 28.7077 28.3475M176.951 124.566C175.501 123.752 174.096 123.494 172.761 123.626C174.119 117.367 175.145 111.021 176.005 104.75C178.774 84.6767 182.952 58.6301 172.99 39.9033C158.144 12.0053 120.868 1.83657 91.1187 0.208655C90.7633 0.0653531 90.3506 -0.0148961 89.8806 0.00230017C89.3933 0.0194964 88.8775 0.0653531 88.3845 0.0940135C87.6909 0.0653531 86.9801 0.0194964 86.2923 0.00230017C85.7649 -0.009164 85.3236 0.11121 84.9395 0.300369C56.2791 2.53015 19.8001 15.4847 7.69966 43.1305C-0.319526 61.4445 3.61268 86.0008 6.28957 105.146C7.14365 111.285 8.1525 117.499 9.48234 123.632C8.14676 123.5 6.73667 123.752 5.29219 124.566C-0.159027 127.633 -0.313793 135.973 0.184898 141.275C1.49181 155.239 9.72882 178.368 24.9876 183.538C26.5525 188.714 28.146 193.844 29.6765 198.888C34.6405 215.196 43.7144 228.81 58.7553 237.677C80.1647 250.311 109.393 248.729 129.237 233.808C143.2 223.313 149.397 209.917 154.08 193.712C155.037 190.394 156.08 187 157.135 183.584C172.509 178.482 180.705 155.319 182.058 141.275C182.568 135.962 182.402 127.633 176.951 124.566" fill="black"/>
</svg>
