<svg width="16" height="16" viewBox="0 0 16 16" fill="none" xmlns="http://www.w3.org/2000/svg">
<rect width="16" height="16" rx="2" fill="white" fill-opacity="0.5"/>
<path fill-rule="evenodd" clip-rule="evenodd" d="M6.19004 5.75959C6.53696 5.82647 6.88042 5.94907 7.20563 6.0876C7.39906 6.16976 7.48336 5.85035 7.29244 5.76915C6.85588 5.58317 6.36114 5.39752 5.88275 5.38892C5.37763 5.38 4.89579 5.69272 4.52213 6.01053C4.36141 6.14746 4.5929 6.37993 4.75268 6.24395C5.16627 5.89239 5.64435 5.65451 6.19004 5.75959" fill="black" fill-opacity="0.87"/>
<path fill-rule="evenodd" clip-rule="evenodd" d="M10.1537 5.52765C9.67782 5.49804 9.16641 5.64038 8.71727 5.78687C8.51818 5.85183 8.60342 6.1706 8.80377 6.10532C9.16389 5.98813 9.54509 5.88782 9.92283 5.86171C10.4402 5.82572 10.8771 6.13207 11.23 6.48937C11.3788 6.63968 11.6096 6.40625 11.4608 6.25563C11.1146 5.90533 10.6576 5.55886 10.1537 5.52765" fill="black" fill-opacity="0.87"/>
<path fill-rule="evenodd" clip-rule="evenodd" d="M6.03177 8.10119C5.57791 8.10119 5.19482 7.86172 5.19482 7.57798C5.19482 7.29456 5.57791 7.05508 6.03177 7.05508C6.48562 7.05508 6.86871 7.29456 6.86871 7.57798C6.86871 7.86172 6.48562 8.10119 6.03177 8.10119M7.19437 7.57798C7.19437 7.09967 6.68358 6.72485 6.03127 6.72485C5.37895 6.72485 4.86816 7.09967 4.86816 7.57798C4.86816 8.05661 5.37895 8.43142 6.03127 8.43142C6.68358 8.43142 7.19437 8.05661 7.19437 7.57798" fill="black" fill-opacity="0.87"/>
<path fill-rule="evenodd" clip-rule="evenodd" d="M9.83352 8.10119C9.37967 8.10119 8.99658 7.86172 8.99658 7.57798C8.99658 7.29456 9.37967 7.05508 9.83352 7.05508C10.2874 7.05508 10.6705 7.29456 10.6705 7.57798C10.6705 7.86172 10.2874 8.10119 9.83352 8.10119M9.83351 6.72485C9.18119 6.72485 8.67041 7.09967 8.67041 7.57798C8.67041 8.05661 9.18119 8.43142 9.83351 8.43142C10.4858 8.43142 10.9966 8.05661 10.9966 7.57798C10.9966 7.09967 10.4858 6.72485 9.83351 6.72485" fill="black" fill-opacity="0.87"/>
<path fill-rule="evenodd" clip-rule="evenodd" d="M6.09486 7.32333C5.92219 7.32333 5.78223 7.46504 5.78223 7.63987C5.78223 7.81502 5.92219 7.95673 6.09486 7.95673C6.26753 7.95673 6.4075 7.81502 6.4075 7.63987C6.4075 7.46504 6.26753 7.32333 6.09486 7.32333" fill="black" fill-opacity="0.87"/>
<path fill-rule="evenodd" clip-rule="evenodd" d="M9.81331 7.31924C9.63843 7.31924 9.49658 7.46286 9.49658 7.63992C9.49658 7.81698 9.63843 7.9606 9.81331 7.9606C9.98818 7.9606 10.13 7.81698 10.13 7.63992C10.13 7.46286 9.98818 7.31924 9.81331 7.31924" fill="black" fill-opacity="0.87"/>
<path fill-rule="evenodd" clip-rule="evenodd" d="M8.15555 10.3713C8.33703 10.4786 8.50153 10.1933 8.32005 10.0863C8.22254 10.0284 8.12473 9.97071 8.02723 9.91275C7.9854 9.88823 7.94356 9.8634 7.90142 9.83856C7.91746 9.62328 7.89827 9.39655 7.89827 9.18255V7.63998C7.89827 7.42758 7.57211 7.42726 7.57211 7.63998V9.41024C7.57211 9.56119 7.51613 9.83059 7.57778 9.97517C7.65861 10.1643 7.98948 10.2729 8.15555 10.3713" fill="black" fill-opacity="0.87"/>
<path fill-rule="evenodd" clip-rule="evenodd" d="M8.83298 11.1753H7.1267C6.91691 11.1753 6.9166 11.5055 7.1267 11.5055H8.83298C9.04276 11.5055 9.04308 11.1753 8.83298 11.1753" fill="black" fill-opacity="0.87"/>
<path fill-rule="evenodd" clip-rule="evenodd" d="M8.30958 11.8803H7.69029C7.4805 11.8803 7.47988 12.2105 7.69029 12.2105H8.30958C8.51937 12.2105 8.51968 11.8803 8.30958 11.8803" fill="black" fill-opacity="0.87"/>
<path fill-rule="evenodd" clip-rule="evenodd" d="M10.525 14.6614C10.5206 15.0107 10.4847 15.7001 10.0139 15.6218C9.77674 15.5823 9.51223 15.4158 9.29018 15.3247C9.03384 15.2193 8.77751 15.1139 8.52148 15.0088C8.54916 14.9101 8.55042 14.8069 8.54885 14.704C8.56426 14.7512 8.59886 14.7907 8.65579 14.8028C9.0417 14.8849 9.42794 14.9668 9.81385 15.0489C10.0186 15.0925 10.1064 14.7741 9.90066 14.7305C9.83776 14.7171 9.77485 14.7037 9.71195 14.6903L9.62137 14.5661C9.75001 14.4754 9.66351 14.2273 9.48109 14.2738C9.20588 14.3439 8.93099 14.4142 8.65579 14.4843C8.5998 14.4986 8.56363 14.5413 8.54822 14.591C8.5479 14.4955 8.54539 14.4028 8.5218 14.3139C8.77782 14.2085 9.03415 14.1034 9.29018 13.998C9.51003 13.9079 9.75881 13.7566 9.99156 13.7102C10.4718 13.6137 10.5297 14.2897 10.525 14.6614M7.51559 15.0349C7.28064 15.1314 7.04569 15.2279 6.81043 15.3247C6.5909 15.4148 6.34211 15.5661 6.10905 15.6126C5.62877 15.7091 5.57122 15.033 5.57593 14.6614C5.58034 14.312 5.61588 13.6226 6.08703 13.7009C6.32387 13.7404 6.58838 13.907 6.81043 13.9981C7.05073 14.0968 7.29071 14.1955 7.531 14.2942C7.49483 14.4098 7.48225 14.5401 7.48225 14.6668C7.48225 14.791 7.47753 14.9171 7.51559 15.0349M10.3866 13.3688C10.1513 13.2519 9.92173 13.3847 9.7044 13.4739C9.2474 13.6618 8.79008 13.8496 8.33277 14.0375C8.23306 13.9627 8.10977 13.921 7.98522 13.928C7.87357 13.934 7.78707 13.9675 7.71819 14.0171C7.27755 13.8359 6.8369 13.6551 6.39594 13.4739C6.17861 13.3847 5.94964 13.2516 5.71406 13.3688C5.30644 13.5713 5.24951 14.2697 5.24951 14.6614C5.24951 15.0594 5.30361 15.7498 5.71406 15.954C5.94932 16.0708 6.17892 15.938 6.39594 15.8489C6.83785 15.6673 7.27975 15.4858 7.72134 15.3043C7.80783 15.3626 7.90974 15.3973 8.0151 15.3973C8.13368 15.3874 8.24281 15.3502 8.33182 15.2849C8.78945 15.4728 9.24708 15.661 9.7044 15.8489C9.92173 15.938 10.151 16.0711 10.3866 15.954C10.7939 15.7514 10.8511 15.0531 10.8511 14.6614C10.8511 14.2633 10.797 13.5729 10.3866 13.3688" fill="black" fill-opacity="0.87"/>
<path fill-rule="evenodd" clip-rule="evenodd" d="M7.28847 14.4843C7.01326 14.4143 6.73837 14.3439 6.46316 14.2738C6.28105 14.2273 6.19393 14.4754 6.32289 14.5662L6.2323 14.6903C6.1694 14.7037 6.10649 14.7171 6.04359 14.7305C5.83821 14.7741 5.92502 15.0925 6.1304 15.0489C6.51632 14.9668 6.90255 14.8849 7.28847 14.8028C7.44761 14.769 7.44007 14.5228 7.28847 14.4843" fill="black" fill-opacity="0.87"/>
<path fill-rule="evenodd" clip-rule="evenodd" d="M12.3557 8.89602C12.2317 9.16893 12.0374 9.53387 11.77 9.74723C11.7801 9.70201 11.7901 9.6568 11.8005 9.61158C11.9785 9.01671 12.1418 8.41102 12.2141 7.82125C12.2144 7.82094 12.2148 7.82062 12.2151 7.81998C12.2755 7.65057 12.3283 7.47733 12.3752 7.30218C12.5305 7.13914 12.6554 7.32479 12.6736 7.57987C12.7045 8.0136 12.5312 8.50974 12.3557 8.89602M11.6033 8.9253C11.0881 10.9554 10.6167 13.3486 7.99952 13.3342C6.7839 13.3275 5.61167 12.6499 5.11693 11.4952C4.77253 10.6921 4.61024 9.76983 4.39573 8.9253C4.3583 8.77722 4.31584 8.62246 4.27527 8.46865C4.22652 8.25338 4.17808 8.03842 4.12933 7.82347C4.11801 7.75054 4.10857 7.68017 4.10512 7.61584C4.07178 7.03563 4.10512 6.4449 4.10134 5.86373C4.09599 5.05774 3.94062 3.96514 4.4816 3.29576C5.10089 2.52862 6.03911 2.46811 6.91474 2.65631C7.2475 2.72797 7.65135 2.95088 7.98946 2.95183C8.35871 2.95279 8.80816 2.7079 9.17395 2.63498C10.1593 2.43849 11.1658 2.66268 11.714 3.59192C11.9688 4.24824 11.9037 5.0208 11.8993 5.71247C11.8949 6.35383 11.9351 7.00951 11.8942 7.6496C11.8917 7.68845 11.887 7.73016 11.881 7.77379C11.8273 8.01135 11.7738 8.2486 11.72 8.48584C11.6797 8.63647 11.6385 8.78678 11.6033 8.9253M3.64407 8.89598C3.47108 8.51512 3.28708 8.00974 3.32608 7.57983C3.34873 7.32921 3.46133 7.11745 3.62331 7.29705C3.67049 7.47411 3.72364 7.64894 3.78466 7.81994C3.78843 7.83045 3.79535 7.83714 3.80038 7.84606C3.80133 7.8502 3.80227 7.85465 3.80321 7.85879C3.80699 7.88491 3.80919 7.91134 3.81328 7.93713C3.90135 8.48518 4.03942 9.03992 4.19416 9.58925C4.20612 9.64211 4.21807 9.69465 4.22971 9.74752C3.96236 9.53511 3.76956 9.1724 3.64407 8.89598M4.06684 2.29328C4.15145 2.53212 4.23605 2.77096 4.32066 3.00947C4.39174 3.21042 4.07659 3.29608 4.00614 3.09737C3.92153 2.85853 3.83692 2.62001 3.75263 2.38117C3.68124 2.18023 3.9967 2.09489 4.06684 2.29328M4.57537 1.57484C4.6669 1.89074 4.75874 2.20664 4.85026 2.52286C4.90971 2.7273 4.59487 2.81392 4.53574 2.61043C4.44422 2.29453 4.35269 1.97863 4.26085 1.66273C4.20141 1.45797 4.51624 1.37135 4.57537 1.57484M12.7094 6.92034C12.6298 6.87513 12.5527 6.86079 12.4794 6.86812C12.554 6.52037 12.6103 6.16785 12.6575 5.81947C12.8094 4.70426 13.0387 3.25723 12.492 2.21685C11.6774 0.66696 9.63208 0.102031 7.99972 0.011592C7.98022 0.00363073 7.95757 -0.00082756 7.93178 0.000127787C7.90505 0.00108313 7.87674 0.00363073 7.84969 0.00522297C7.81163 0.00363073 7.77263 0.00108313 7.73489 0.000127787C7.70595 -0.000509111 7.68174 0.00617832 7.66066 0.0166871C6.08805 0.140564 4.08644 0.860259 3.42248 2.39614C2.98247 3.41358 3.19823 4.77782 3.34511 5.84144C3.39197 6.1825 3.44733 6.5277 3.5203 6.86844C3.44702 6.86111 3.36964 6.87513 3.29038 6.92034C2.99127 7.09072 2.98278 7.55406 3.01015 7.84862C3.08186 8.62437 3.53382 9.90931 4.37108 10.1965C4.45695 10.4841 4.54438 10.7691 4.62836 11.0494C4.90074 11.9553 5.39862 12.7117 6.22393 13.2043C7.39867 13.9062 9.00241 13.8183 10.0913 12.9893C10.8575 12.4063 11.1975 11.6621 11.4544 10.7618C11.5069 10.5774 11.5642 10.3889 11.6221 10.1991C12.4656 9.91568 12.9154 8.62882 12.9896 7.84862C13.0176 7.55342 13.0085 7.09072 12.7094 6.92034" fill="black" fill-opacity="0.87"/>
</svg>
