<svg width="17" height="16" viewBox="0 0 17 16" fill="none" xmlns="http://www.w3.org/2000/svg">
<path d="M3.69136 16H12.366C13.9564 16 15.2576 14.6929 15.2576 13.0953V7.77006C15.2576 7.50379 15.0407 7.28594 14.7757 7.28594C14.5106 7.28594 14.2937 7.50379 14.2937 7.77006V13.0953C14.2937 14.1604 13.4263 15.0318 12.366 15.0318H3.69136C2.63112 15.0318 1.76366 14.1604 1.76366 13.0953V4.38125C1.76366 3.3162 2.63112 2.44479 3.69136 2.44479H8.99255C9.25761 2.44479 9.47448 2.22694 9.47448 1.96068C9.47448 1.69441 9.25761 1.47656 8.99255 1.47656H3.69136C2.10101 1.47656 0.799805 2.78367 0.799805 4.38125V13.0953C0.799805 14.6929 2.10101 16 3.69136 16Z" fill="black"/>
<path d="M16.7999 4.88956V0.459909C16.7999 0.435703 16.7999 0.387292 16.7999 0.363086V0.33888C16.7999 0.314675 16.7999 0.290469 16.7758 0.266263L16.7517 0.242057C16.7517 0.217852 16.7276 0.193646 16.7276 0.193646C16.7035 0.145234 16.6553 0.0968232 16.583 0.0484117C16.5589 0.0242059 16.5348 0.0242058 16.5107 0.0242058L16.4384 0H16.4143C16.3903 0 16.3421 0 16.318 0H11.9083C11.6433 0 11.4264 0.217852 11.4264 0.484115C11.4264 0.750378 11.6433 0.96823 11.9083 0.96823H15.1613L8.10112 8.0121C7.90835 8.20575 7.90835 8.49622 8.10112 8.68986C8.29389 8.88351 8.58305 8.88351 8.77582 8.68986L15.836 1.62179V4.88956C15.836 5.15582 16.0529 5.37368 16.318 5.37368C16.583 5.37368 16.7999 5.15582 16.7999 4.88956Z" fill="black"/>
</svg>
