<svg width="26" height="32" viewBox="0 0 26 32" fill="none" xmlns="http://www.w3.org/2000/svg">
<path d="M24.3793 3.2H22.7546V1.6C22.7546 1.17565 22.5835 0.768687 22.2788 0.468629C21.9741 0.168571 21.5608 0 21.1299 0L5.96612 0C5.95529 0 5.94608 0.00533333 5.93525 0.00586667C5.88574 0.00875522 5.83689 0.0184491 5.79011 0.0346667C5.77405 0.0399921 5.75832 0.0462246 5.74299 0.0533333C5.68259 0.0786656 5.6275 0.114836 5.58052 0.16L0.164873 5.49333C0.1196 5.53865 0.0829188 5.59157 0.0565599 5.6496C0.048978 5.6656 0.0446455 5.68267 0.0386883 5.6992C0.0231397 5.74382 0.0136699 5.79027 0.0105269 5.83733C0.0105269 5.84907 0.00402832 5.8592 0.00402832 5.8704V27.2C0.00402832 27.6243 0.175201 28.0313 0.47989 28.3314C0.78458 28.6314 1.19783 28.8 1.62872 28.8H3.25342V30.4C3.25342 30.8243 3.42459 31.2313 3.72928 31.5314C4.03397 31.8314 4.44722 32 4.87811 32H24.3793C24.8102 32 25.2235 31.8314 25.5282 31.5314C25.8329 31.2313 26.004 30.8243 26.004 30.4V4.8C26.004 4.37565 25.8329 3.96869 25.5282 3.66863C25.2235 3.36857 24.8102 3.2 24.3793 3.2ZM5.42455 1.8208V4.8C5.42455 4.94145 5.3675 5.0771 5.26593 5.17712C5.16437 5.27714 5.02662 5.33333 4.88299 5.33333H1.85781L5.42455 1.8208ZM1.09203 27.2V6.4H4.88299C5.31388 6.4 5.72713 6.23143 6.03182 5.93137C6.33651 5.63131 6.50768 5.22435 6.50768 4.8V1.06667H21.1299C21.2736 1.06667 21.4113 1.12286 21.5129 1.22288C21.6144 1.3229 21.6715 1.45855 21.6715 1.6V27.2C21.6715 27.3414 21.6144 27.4771 21.5129 27.5771C21.4113 27.6771 21.2736 27.7333 21.1299 27.7333H1.6336C1.48997 27.7333 1.35222 27.6771 1.25065 27.5771C1.14909 27.4771 1.09203 27.3414 1.09203 27.2ZM24.9209 30.4C24.9209 30.5415 24.8638 30.6771 24.7623 30.7771C24.6607 30.8771 24.523 30.9333 24.3793 30.9333H4.88299C4.73936 30.9333 4.60161 30.8771 4.50004 30.7771C4.39848 30.6771 4.34142 30.5415 4.34142 30.4V28.8H21.1299C21.5608 28.8 21.9741 28.6314 22.2788 28.3314C22.5835 28.0313 22.7546 27.6243 22.7546 27.2V4.26667H24.3793C24.523 4.26667 24.6607 4.32286 24.7623 4.42288C24.8638 4.5229 24.9209 4.65855 24.9209 4.8V30.4Z" fill="black"/>
<path d="M3.79987 20.8H18.9637C19.1073 20.8 19.2451 20.7438 19.3466 20.6438C19.4482 20.5438 19.5053 20.4081 19.5053 20.2667C19.5053 20.1252 19.4482 19.9896 19.3466 19.8895C19.2451 19.7895 19.1073 19.7333 18.9637 19.7333H3.79987C3.65623 19.7333 3.51848 19.7895 3.41692 19.8895C3.31536 19.9896 3.2583 20.1252 3.2583 20.2667C3.2583 20.4081 3.31536 20.5438 3.41692 20.6438C3.51848 20.7438 3.65623 20.8 3.79987 20.8Z" fill="black"/>
<path d="M10.2987 22.4H9.75714C9.61351 22.4 9.47576 22.4562 9.3742 22.5562C9.27263 22.6562 9.21558 22.7919 9.21558 22.9333C9.21558 23.0748 9.27263 23.2104 9.3742 23.3105C9.47576 23.4105 9.61351 23.4667 9.75714 23.4667H10.2987C10.4423 23.4667 10.5801 23.4105 10.6817 23.3105C10.7832 23.2104 10.8403 23.0748 10.8403 22.9333C10.8403 22.7919 10.7832 22.6562 10.6817 22.5562C10.5801 22.4562 10.4423 22.4 10.2987 22.4Z" fill="black"/>
<path d="M7.04926 23.4667C7.19289 23.4667 7.33064 23.4105 7.4322 23.3105C7.53376 23.2104 7.59082 23.0748 7.59082 22.9333C7.59082 22.7919 7.53376 22.6562 7.4322 22.5562C7.33064 22.4562 7.19289 22.4 7.04926 22.4H3.79987C3.65623 22.4 3.51848 22.4562 3.41692 22.5562C3.31536 22.6562 3.2583 22.7919 3.2583 22.9333C3.2583 23.0748 3.31536 23.2104 3.41692 23.3105C3.51848 23.4105 3.65623 23.4667 3.79987 23.4667H7.04926Z" fill="black"/>
<path d="M4.34143 18.1333H18.4221C18.7094 18.1333 18.9849 18.021 19.188 17.8209C19.3911 17.6209 19.5053 17.3496 19.5053 17.0667V9.06667C19.5053 8.78377 19.3911 8.51246 19.188 8.31242C18.9849 8.11238 18.7094 8 18.4221 8H4.34143C4.05417 8 3.77867 8.11238 3.57554 8.31242C3.37242 8.51246 3.2583 8.78377 3.2583 9.06667V17.0667C3.2583 17.3496 3.37242 17.6209 3.57554 17.8209C3.77867 18.021 4.05417 18.1333 4.34143 18.1333ZM4.34143 11.7333H6.50769V17.0667H4.34143V11.7333ZM12.4649 11.7333V17.0667H7.59082V11.7333H12.4649ZM7.59082 10.6667V9.06667H12.4649V10.6667H7.59082ZM13.548 17.0667V11.7333H18.4221V17.0667H13.548ZM18.4221 10.6667H13.548V9.06667H18.4221V10.6667ZM6.50769 9.06667V10.6667H4.34143V9.06667H6.50769Z" fill="black"/>
</svg>
