<svg width="26" height="32" viewBox="0 0 26 32" fill="none" xmlns="http://www.w3.org/2000/svg">
<path d="M24.1383 0H6.80863C6.79626 0 6.78512 0.00613709 6.77336 0.0067508C6.71678 0.0100747 6.66095 0.0212295 6.60749 0.0398911C6.58914 0.046019 6.57116 0.0531909 6.55364 0.0613709C6.48461 0.0905208 6.42165 0.132142 6.36797 0.184113L0.178817 6.3212C0.127079 6.37334 0.0851582 6.43424 0.0550346 6.50102C0.0463698 6.51943 0.0414184 6.53907 0.0346104 6.55809C0.016841 6.60943 0.00601872 6.66288 0.00242678 6.71704C0.00242678 6.73054 -0.00500025 6.7422 -0.00500025 6.75509V30.7468C-0.00584102 31.0513 0.10785 31.3452 0.313861 31.5711C0.519872 31.7969 0.803399 31.9385 1.10905 31.9681L25.0023 32C25.282 31.9431 25.5335 31.7924 25.7143 31.5732C25.8951 31.354 25.9943 31.0797 25.995 30.7965V1.84113C25.995 1.35283 25.7994 0.884531 25.4512 0.539253C25.103 0.193975 24.6307 0 24.1383 0ZM6.18972 2.0952V5.52338C6.18972 5.68614 6.12451 5.84224 6.00844 5.95734C5.89237 6.07243 5.73495 6.13709 5.5708 6.13709H2.11354L6.18972 2.0952ZM24.7572 30.7965L1.2384 30.7468V7.3645H5.5708C6.06324 7.3645 6.53551 7.17053 6.88372 6.82525C7.23193 6.47997 7.42755 6.01168 7.42755 5.52338V1.22742H24.1383C24.3024 1.22742 24.4598 1.29208 24.5759 1.40717C24.692 1.52226 24.7572 1.67836 24.7572 1.84113V30.7965Z" fill="black"/>
<path d="M21.6626 17.1838H4.33303C4.16888 17.1838 4.01146 17.2485 3.89539 17.3636C3.77932 17.4787 3.71411 17.6348 3.71411 17.7975C3.71411 17.9603 3.77932 18.1164 3.89539 18.2315C4.01146 18.3466 4.16888 18.4113 4.33303 18.4113H21.6626C21.8268 18.4113 21.9842 18.3466 22.1003 18.2315C22.2164 18.1164 22.2816 17.9603 22.2816 17.7975C22.2816 17.6348 22.2164 17.4787 22.1003 17.3636C21.9842 17.2485 21.8268 17.1838 21.6626 17.1838Z" fill="black"/>
<path d="M11.7599 20.2524H11.141C10.9769 20.2524 10.8194 20.317 10.7034 20.4321C10.5873 20.5472 10.5221 20.7033 10.5221 20.8661C10.5221 21.0289 10.5873 21.185 10.7034 21.3C10.8194 21.4151 10.9769 21.4798 11.141 21.4798H11.7599C11.9241 21.4798 12.0815 21.4151 12.1976 21.3C12.3136 21.185 12.3788 21.0289 12.3788 20.8661C12.3788 20.7033 12.3136 20.5472 12.1976 20.4321C12.0815 20.317 11.9241 20.2524 11.7599 20.2524Z" fill="black"/>
<path d="M8.04652 20.2524H4.33303C4.16888 20.2524 4.01146 20.317 3.89539 20.4321C3.77932 20.5472 3.71411 20.7033 3.71411 20.8661C3.71411 21.0289 3.77932 21.185 3.89539 21.3C4.01146 21.4151 4.16888 21.4798 4.33303 21.4798H8.04652C8.21066 21.4798 8.36809 21.4151 8.48416 21.3C8.60022 21.185 8.66543 21.0289 8.66543 20.8661C8.66543 20.7033 8.60022 20.5472 8.48416 20.4321C8.36809 20.317 8.21066 20.2524 8.04652 20.2524Z" fill="black"/>
<path d="M7.4276 11.0468H4.33303C4.16888 11.0468 4.01146 11.1114 3.89539 11.2265C3.77932 11.3416 3.71411 11.4977 3.71411 11.6605C3.71411 11.8232 3.77932 11.9793 3.89539 12.0944C4.01146 12.2095 4.16888 12.2742 4.33303 12.2742H7.4276C7.59175 12.2742 7.74917 12.2095 7.86524 12.0944C7.98131 11.9793 8.04652 11.8232 8.04652 11.6605C8.04652 11.4977 7.98131 11.3416 7.86524 11.2265C7.74917 11.1114 7.59175 11.0468 7.4276 11.0468Z" fill="black"/>
<path d="M21.6626 11.0468H10.5221C10.358 11.0468 10.2005 11.1114 10.0845 11.2265C9.9684 11.3416 9.9032 11.4977 9.9032 11.6605C9.9032 11.8232 9.9684 11.9793 10.0845 12.0944C10.2005 12.2095 10.358 12.2742 10.5221 12.2742H21.6626C21.8267 12.2742 21.9842 12.2095 22.1002 12.0944C22.2163 11.9793 22.2815 11.8232 22.2815 11.6605C22.2815 11.4977 22.2163 11.3416 22.1002 11.2265C21.9842 11.1114 21.8267 11.0468 21.6626 11.0468Z" fill="black"/>
<path d="M4.33303 15.3427H6.18977C6.35392 15.3427 6.51134 15.2781 6.62741 15.163C6.74348 15.0479 6.80869 14.8918 6.80869 14.729C6.80869 14.5662 6.74348 14.4101 6.62741 14.295C6.51134 14.18 6.35392 14.1153 6.18977 14.1153H4.33303C4.16888 14.1153 4.01146 14.18 3.89539 14.295C3.77932 14.4101 3.71411 14.5662 3.71411 14.729C3.71411 14.8918 3.77932 15.0479 3.89539 15.163C4.01146 15.2781 4.16888 15.3427 4.33303 15.3427Z" fill="black"/>
<path d="M9.28432 15.3427H16.7113C16.8754 15.3427 17.0329 15.2781 17.1489 15.163C17.265 15.0479 17.3302 14.8918 17.3302 14.729C17.3302 14.5662 17.265 14.4101 17.1489 14.295C17.0329 14.18 16.8754 14.1153 16.7113 14.1153H9.28432C9.12017 14.1153 8.96275 14.18 8.84668 14.295C8.73061 14.4101 8.66541 14.5662 8.66541 14.729C8.66541 14.8918 8.73061 15.0479 8.84668 15.163C8.96275 15.2781 9.12017 15.3427 9.28432 15.3427Z" fill="black"/>
<path d="M19.187 14.729C19.187 14.8918 19.2522 15.0479 19.3683 15.163C19.4844 15.2781 19.6418 15.3427 19.8059 15.3427H21.6627C21.8268 15.3427 21.9842 15.2781 22.1003 15.163C22.2164 15.0479 22.2816 14.8918 22.2816 14.729C22.2816 14.5662 22.2164 14.4101 22.1003 14.295C21.9842 14.18 21.8268 14.1153 21.6627 14.1153H19.8059C19.6418 14.1153 19.4844 14.18 19.3683 14.295C19.2522 14.4101 19.187 14.5662 19.187 14.729Z" fill="black"/>
</svg>
